<?xml version="1.0" encoding="UTF-8" standalone="no"?>
<svg
   xmlns:dc="http://purl.org/dc/elements/1.1/"
   xmlns:cc="http://creativecommons.org/ns#"
   xmlns:rdf="http://www.w3.org/1999/02/22-rdf-syntax-ns#"
   xmlns:svg="http://www.w3.org/2000/svg"
   xmlns="http://www.w3.org/2000/svg"
   xmlns:sodipodi="http://sodipodi.sourceforge.net/DTD/sodipodi-0.dtd"
   xmlns:inkscape="http://www.inkscape.org/namespaces/inkscape"
   version="1.1"
   id="Capa_1"
   x="0px"
   y="0px"
   viewBox="0 0 332.8 332.8"
   style="enable-background:new 0 0 332.8 332.8;"
   xml:space="preserve"
   sodipodi:docname="cinema-close-mirrored.svg"
   inkscape:version="1.0.2 (e86c870879, 2021-01-15)"><metadata
   id="metadata41"><rdf:RDF><cc:Work
       rdf:about=""><dc:format>image/svg+xml</dc:format><dc:type
         rdf:resource="http://purl.org/dc/dcmitype/StillImage" /><dc:title></dc:title></cc:Work></rdf:RDF></metadata><defs
   id="defs39" /><sodipodi:namedview
   pagecolor="#ffffff"
   bordercolor="#666666"
   borderopacity="1"
   objecttolerance="10"
   gridtolerance="10"
   guidetolerance="10"
   inkscape:pageopacity="0"
   inkscape:pageshadow="2"
   inkscape:window-width="1600"
   inkscape:window-height="836"
   id="namedview37"
   showgrid="false"
   inkscape:zoom="1.844952"
   inkscape:cx="166.39999"
   inkscape:cy="166.39999"
   inkscape:window-x="0"
   inkscape:window-y="0"
   inkscape:window-maximized="1"
   inkscape:current-layer="Capa_1" />
<style
   type="text/css"
   id="style2">
	.st0{fill:#FFFFFF;}
</style>
<g
   id="g12"
   style="fill:#ffffff"
   transform="matrix(-1,0,0,1,315.30659,0)">
	<g
   id="g10"
   style="fill:#ffffff">
		<g
   id="g8"
   style="fill:#ffffff">
			<path
   class="st0"
   d="m 330.8,171 c -3.6,-6.4 -12,-8.8 -18.8,-4.8 l -45.6,26.4 -11.6,6.8 v 63.2 l 10.8,6.4 c 0.4,0 0.4,0.4 0.8,0.4 l 44.8,26 c 2,1.6 4.8,2.4 7.6,2.4 7.6,0 13.6,-6 13.6,-13.6 v -53.6 l 0.4,-52.8 c 0,-2.4 -0.4,-4.8 -2,-6.8 z"
   id="path4"
   style="fill:#ffffff" />
			<path
   class="st0"
   d="m 193.2,150.6 c 35.6,0 64.4,-28.8 64.4,-64.4 0,-35.6 -28.8,-64.4 -64.4,-64.4 -35.6,0 -64.4,28.8 -64.4,64.4 0,35.6 28.8,64.4 64.4,64.4 z m 0,-90.8 c 14.8,0 26.4,12 26.4,26.4 0,14.8 -12,26.4 -26.4,26.4 -14.4,0 -26.4,-12 -26.4,-26.4 0,-14.8 11.6,-26.4 26.4,-26.4 z"
   id="path6"
   style="fill:#ffffff" />
		</g>
	</g>
</g>
<g
   id="g16"
   style="fill:#ffffff"
   transform="matrix(-1,0,0,1,315.30659,0)">
	<g
   id="g14"
   style="fill:#ffffff">
	</g>
</g>
<rect
   x="240.97394"
   y="-252.57466"
   transform="matrix(0.74024318,0.67233922,0.67233922,-0.74024318,0,0)"
   class="st0"
   width="19.598858"
   height="460.67313"
   id="rect18"
   style="fill:#ffffff;stroke-width:0.999942" />
<path
   class="st0"
   d="m 224.70659,83.3 c 0.2,-2.2 1.3,-8.9 6.7,-14.9 5.4,-5.9 11.9,-7.6 14.1,-8.1 10.1,-11.1 20.3,-22.3 30.4,-33.5 -24.3,-9.8 -52,-4.4 -70.2,13.6 -19.9,19.7 -24.7,50.8 -11.5,76.4 10.2,-11.2 20.3,-22.3 30.5,-33.5 z"
   id="path20"
   style="fill:#ffffff" />
<path
   class="st0"
   d="m 305.20659,51.6 c -9.4,10.2 -18.8,20.4 -28.2,30.6 0.2,1.8 1.4,11.7 -5.5,20.5 -8.2,10.3 -20.7,10.2 -22.1,10.1 -9.2,10.3 -18.5,20.6 -27.7,30.8 4.8,2.3 24.6,11.2 48.3,4.1 6,-1.8 20.7,-7.3 32.1,-22 13.5,-17.6 13.4,-36.6 13.1,-42.3 -0.7,-15.4 -6.7,-26.6 -10,-31.8 z"
   id="path22"
   style="fill:#ffffff" />
<g
   id="g34"
   style="fill:#ffffff"
   transform="matrix(-1,0,0,1,315.30659,0)">
	<path
   class="st0"
   d="m 243.4,178.2 c 0.1,24.5 0.2,49 0.2,73.5 -30.7,-33.8 -61.3,-67.7 -92,-101.5 5.9,3.9 20.9,12.4 41.6,12.4 16,0 28.2,-5.2 34.4,-8.4 2.5,1.5 7,4.6 10.7,10.3 3.7,5.5 4.7,10.9 5.1,13.7 z"
   id="path24"
   style="fill:#ffffff" />
	<g
   id="g32"
   style="fill:#ffffff">
		<path
   class="st0"
   d="M 211.2,311 C 150.8,258.7 90.4,206.5 30,154.2 c 6.1,3.1 18.2,8.4 34.4,8.4 18.1,0 31.5,-6.5 37.5,-9.9 44.5,49 89.1,98.1 133.6,147.1 -1.8,2.1 -5.3,5.5 -10.6,8.1 -5.7,2.7 -10.9,3.1 -13.7,3.1 z"
   id="path26"
   style="fill:#ffffff" />
		<path
   class="st0"
   d="M 46.8,311 C 36,267.7 25.2,224.3 14.4,181 c 0.1,-3.2 0.7,-11.3 6.5,-18.8 3.1,-4.1 6.7,-6.6 9.1,-8 60.4,52.3 120.8,104.5 181.2,156.8 -54.8,0 -109.6,0 -164.4,0 z"
   id="path28"
   style="fill:#ffffff" />
		<path
   class="st0"
   d="m 14.4,278.6 v 0 c 0,-32.5 0,-65.1 0,-97.6 10.8,43.3 21.6,86.7 32.4,130 -2.6,0 -12.7,-0.4 -21.5,-8.1 -10.6,-9.4 -10.9,-22.2 -10.9,-24.3 z"
   id="path30"
   style="fill:#ffffff" />
	</g>
</g>
</svg>
