<?xml version="1.0" encoding="UTF-8" standalone="no"?>
<svg
   xmlns:dc="http://purl.org/dc/elements/1.1/"
   xmlns:cc="http://creativecommons.org/ns#"
   xmlns:rdf="http://www.w3.org/1999/02/22-rdf-syntax-ns#"
   xmlns:svg="http://www.w3.org/2000/svg"
   xmlns="http://www.w3.org/2000/svg"
   xmlns:sodipodi="http://sodipodi.sourceforge.net/DTD/sodipodi-0.dtd"
   xmlns:inkscape="http://www.inkscape.org/namespaces/inkscape"
   version="1.1"
   id="Capa_1"
   x="0px"
   y="0px"
   viewBox="0 0 332.8 332.8"
   style="enable-background:new 0 0 332.8 332.8;"
   xml:space="preserve"
   sodipodi:docname="cinemamirrored.svg"
   inkscape:version="1.0.2 (e86c870879, 2021-01-15)"><metadata
   id="metadata23"><rdf:RDF><cc:Work
       rdf:about=""><dc:format>image/svg+xml</dc:format><dc:type
         rdf:resource="http://purl.org/dc/dcmitype/StillImage" /><dc:title></dc:title></cc:Work></rdf:RDF></metadata><defs
   id="defs21" /><sodipodi:namedview
   pagecolor="#ffffff"
   bordercolor="#666666"
   borderopacity="1"
   objecttolerance="10"
   gridtolerance="10"
   guidetolerance="10"
   inkscape:pageopacity="0"
   inkscape:pageshadow="2"
   inkscape:window-width="1600"
   inkscape:window-height="836"
   id="namedview19"
   showgrid="false"
   inkscape:zoom="1.844952"
   inkscape:cx="166.39999"
   inkscape:cy="166.39999"
   inkscape:window-x="0"
   inkscape:window-y="0"
   inkscape:window-maximized="1"
   inkscape:current-layer="Capa_1" />
<style
   type="text/css"
   id="style2">
	.st0{fill:#FFFFFF;}
</style>
<g
   id="g16"
   transform="matrix(-1,0,0,1,332.79594,0)">
	<g
   id="g14">
		<g
   id="g12">
			<path
   class="st0"
   d="m 330.8,171 c -3.6,-6.4 -12,-8.8 -18.8,-4.8 l -45.6,26.4 -11.6,6.8 v 63.2 l 10.8,6.4 c 0.4,0 0.4,0.4 0.8,0.4 l 44.8,26 c 2,1.6 4.8,2.4 7.6,2.4 7.6,0 13.6,-6 13.6,-13.6 v -53.6 l 0.4,-52.8 c 0,-2.4 -0.4,-4.8 -2,-6.8 z"
   id="path4" />
			<path
   class="st0"
   d="m 64.4,150.6 c 35.6,0 64.4,-28.8 64.4,-64.4 C 128.8,50.6 100,21.8 64.4,21.8 28.8,21.8 0,50.6 0,86.2 c -0.4,35.6 28.8,64.4 64.4,64.4 z m 0,-90.8 c 14.8,0 26.4,12 26.4,26.4 0,14.8 -12,26.4 -26.4,26.4 C 50,112.6 38,100.6 38,86.2 37.6,71.4 49.6,59.8 64.4,59.8 Z"
   id="path6" />
			<path
   class="st0"
   d="m 227.6,154.2 c -10.4,5.2 -22,8.4 -34.4,8.4 -15.2,0 -29.6,-4.4 -41.6,-12.4 H 106 c -12,8 -26.4,12.4 -41.6,12.4 -12.4,0 -24,-2.8 -34.4,-8.4 -9.2,5.2 -15.6,15.6 -15.6,26.8 v 97.6 c 0,18 14.8,32.4 32.4,32.4 h 164.4 c 18,0 32.4,-14.8 32.4,-32.4 V 181 c -0.4,-11.2 -6.8,-21.6 -16,-26.8 z"
   id="path8" />
			<path
   class="st0"
   d="m 193.2,150.6 c 35.6,0 64.4,-28.8 64.4,-64.4 0,-35.6 -28.8,-64.4 -64.4,-64.4 -35.6,0 -64.4,28.8 -64.4,64.4 0,35.6 28.8,64.4 64.4,64.4 z m 0,-90.8 c 14.8,0 26.4,12 26.4,26.4 0,14.8 -12,26.4 -26.4,26.4 -14.4,0 -26.4,-12 -26.4,-26.4 0,-14.8 11.6,-26.4 26.4,-26.4 z"
   id="path10" />
		</g>
	</g>
</g>
</svg>
